<?xml version="1.0" ?><svg data-name="Layer 3" id="Layer_3" viewBox="0 0 32 32" xmlns="http://www.w3.org/2000/svg"><defs><style>.cls-1,.cls-3{fill:none;stroke:#0832ff;stroke-linecap:round;stroke-linejoin:round;}.cls-1{stroke-width:2px;}.cls-2{fill:#0832ff;}</style></defs><title/><path class="cls-1" d="M20.87,18.59l-1.74,1.74a2,2,0,0,1-2.47.3,14.87,14.87,0,0,1-5.29-5.27,2,2,0,0,1,.32-2.45l1.75-1.75a2.13,2.13,0,0,0,0-3L10.9,5.6a1.55,1.55,0,0,0-2.19,0L6.87,7.44a5.86,5.86,0,0,0-1.2,6.66,25.69,25.69,0,0,0,12,12.1,6,6,0,0,0,6.9-1.08l1.8-1.8a1.55,1.55,0,0,0,0-2.19l-2.55-2.55A2.13,2.13,0,0,0,20.87,18.59Z"/><path class="cls-1" d="M12.66,11.94a2.13,2.13,0,0,0,0-3L10.12,6.38a1.55,1.55,0,0,0-2.19,0"/><circle class="cls-2" cx="18.62" cy="13.01" r="1.5"/><path class="cls-3" d="M18.62,8.59A4.41,4.41,0,0,1,23,13"/><path class="cls-3" d="M18.62,4.92A8.09,8.09,0,0,1,26.7,13"/><line class="cls-3" x1="20.87" x2="25.73" y1="18.59" y2="23.44"/></svg>